<svg width="1071" height="774" viewBox="0 0 1071 774" fill="none" xmlns="http://www.w3.org/2000/svg">
<g clip-path="url(#clip0_8_212)">
<path d="M802.976 419.201L806.342 375.852C806.342 375.852 820.922 407.896 802.976 419.201Z" fill="#F1F1F1"/>
<path d="M804.025 419.273L774.235 387.479C774.235 387.479 807.793 398.462 804.025 419.273Z" fill="#F1F1F1"/>
<path d="M674.389 294.066C674.38 293.267 674.546 292.475 674.877 291.747C675.207 291.019 675.694 290.372 676.303 289.852C676.912 289.331 677.628 288.95 678.401 288.736C679.174 288.521 679.985 288.477 680.777 288.608L687.415 278.01L694.867 280.459L685.281 295.294C684.972 296.604 684.192 297.756 683.087 298.531C681.983 299.305 680.631 299.65 679.289 299.498C677.946 299.347 676.706 298.71 675.803 297.709C674.9 296.708 674.397 295.412 674.389 294.066L674.389 294.066Z" fill="#FFB7B7"/>
<path d="M700.541 404.332L694.13 403.836L692.991 378.977L702.454 379.709L700.541 404.332Z" fill="#FFB7B7"/>
<path d="M701.694 410.646L681.025 409.048L681.045 408.787C681.211 406.663 682.216 404.69 683.842 403.305C685.467 401.919 687.579 401.233 689.712 401.398L689.713 401.398L702.337 402.374L701.694 410.646Z" fill="#2F2E41"/>
<path d="M752.466 403.55L746.15 404.751L738.483 381.063L747.805 379.29L752.466 403.55Z" fill="#FFB7B7"/>
<path d="M755.247 409.339L734.885 413.213L734.835 412.956C734.433 410.863 734.882 408.696 736.084 406.933C737.286 405.17 739.142 403.955 741.244 403.555L741.245 403.555L753.681 401.189L755.247 409.339Z" fill="#2F2E41"/>
<path d="M697.095 297.064L690.143 345.173L692.8 399.956L704.316 397.406L708.554 348.969L719.724 321.713L740.575 398.43L753.121 394.891L746.818 345.639L744.668 299.675L697.095 297.064Z" fill="#2F2E41"/>
<path d="M734.775 214.555L715.613 215.873L708.266 222.068L704.271 246.057L703.927 267.553L695.51 304.857C695.51 304.857 709.9 298.296 719.852 308.671C729.803 319.046 745.375 312.342 746.176 306.014L734.775 214.555Z" fill="#CBCBCB"/>
<path d="M722.801 244.104L722.803 244.077L734.586 214.252L734.708 214.254C735.382 214.262 751.232 214.556 754.159 222.588L754.173 222.627L750.636 254.294L748.252 304.133L718.58 308.172L718.365 308.201L722.801 244.104Z" fill="#2F2E41"/>
<path d="M712.536 241.186L716.274 215.419C703.934 215.23 703.446 223.915 703.431 224.294L700.289 263.025L694.611 304.281L703.606 304.305L712.536 241.186Z" fill="#2F2E41"/>
<path d="M681.188 286.172L694.046 261.818L702.736 248.491L704.76 273.9L689.367 293.438L681.188 286.172Z" fill="#2F2E41"/>
<path d="M726.962 280.385C727.19 279.619 727.583 278.911 728.115 278.313C728.646 277.714 729.303 277.239 730.039 276.921C730.775 276.603 731.572 276.449 732.374 276.471C733.177 276.493 733.964 276.69 734.682 277.047L744.164 268.872L750.559 273.401L737.006 284.759C736.323 285.92 735.236 286.79 733.951 287.206C732.666 287.622 731.273 287.554 730.035 287.015C728.797 286.476 727.8 285.503 727.234 284.281C726.668 283.059 726.571 281.673 726.962 280.385V280.385Z" fill="#FFB7B7"/>
<path d="M734.913 273.813L754.366 255.609L743.806 237.823L745.668 229.671L753.332 221.605L753.454 221.792C754.126 222.81 769.888 246.838 769.725 255.46C769.561 264.113 742.682 283.958 741.538 284.798L741.379 284.915L734.913 273.813Z" fill="#2F2E41"/>
<path d="M724.007 211.589C731.046 212.133 737.194 206.891 737.738 199.881C738.282 192.871 733.017 186.747 725.978 186.203C718.939 185.659 712.791 190.9 712.247 197.91C711.703 204.921 716.968 211.045 724.007 211.589Z" fill="#FFB7B7"/>
<path d="M737.767 189.675L738.481 188.485L735.492 186.706C735.492 186.706 732.493 180.883 726.166 181.965C719.838 183.047 716.973 183.766 716.973 183.766L713.751 185.08L715.188 186.743L712.323 187.462L714.117 188.529L711.85 189.603L712.524 196.063C712.524 196.063 714.84 191.382 718.427 193.517C722.015 195.651 729.057 193.378 729.057 193.378L734.098 205.264C734.098 205.264 735.632 201.353 737.73 202.589C737.73 202.589 743.988 194.184 737.767 189.675Z" fill="#2F2E41"/>
<path d="M587.972 250.387L390.023 288.634L344.094 53.2318L542.043 14.9841L587.972 250.387Z" fill="white"/>
<path d="M587.972 250.387L390.023 288.634L344.094 53.2318L542.043 14.9841L587.972 250.387ZM392.837 284.482L583.802 247.583L539.23 19.1369L348.265 56.035L392.837 284.482Z" fill="#F1F1F1"/>
<path d="M491.849 114.969L442.229 124.557C441.529 124.691 440.804 124.544 440.214 124.146C439.623 123.749 439.214 123.135 439.077 122.438L429.435 73.0185C429.3 72.3214 429.448 71.5995 429.846 71.0111C430.245 70.4227 430.862 70.0158 431.561 69.8798L481.181 60.2924C481.881 60.1579 482.606 60.3055 483.197 60.7027C483.788 61.0999 484.197 61.7143 484.333 62.4111L493.976 111.831C494.111 112.528 493.963 113.25 493.564 113.838C493.166 114.426 492.549 114.833 491.849 114.969V114.969ZM431.766 70.9313C431.347 71.0129 430.977 71.257 430.737 71.6101C430.498 71.9631 430.409 72.3963 430.491 72.8146L440.133 122.234C440.215 122.652 440.46 123.021 440.815 123.259C441.169 123.497 441.604 123.586 442.024 123.505L491.644 113.918C492.064 113.836 492.434 113.592 492.673 113.239C492.912 112.886 493.001 112.453 492.92 112.035L483.278 62.6151C483.196 62.1971 482.95 61.8284 482.596 61.5901C482.241 61.3518 481.806 61.2632 481.386 61.3439L431.766 70.9313Z" fill="#E5E5E5"/>
<path d="M478.776 123.769L429.156 133.357C428.527 133.478 427.874 133.345 427.342 132.987C426.81 132.63 426.443 132.077 426.319 131.45L416.677 82.0302C416.555 81.4029 416.689 80.7531 417.047 80.2235C417.406 79.694 417.961 79.3278 418.591 79.2054L468.211 69.618C468.841 69.497 469.493 69.6298 470.025 69.9873C470.557 70.3448 470.925 70.8977 471.048 71.5248L480.69 120.944C480.812 121.572 480.679 122.221 480.32 122.751C479.961 123.281 479.406 123.647 478.776 123.769V123.769Z" fill="#2168F4"/>
<path d="M534.546 134.725L396.076 161.48L397.116 166.81L535.586 140.055L534.546 134.725Z" fill="#F1F1F1"/>
<path d="M537.257 148.621L398.787 175.376L399.827 180.705L538.297 153.95L537.257 148.621Z" fill="#F1F1F1"/>
<path d="M539.968 162.516L401.498 189.271L402.538 194.6L541.008 167.845L539.968 162.516Z" fill="#F1F1F1"/>
<path d="M544.74 186.972L406.27 213.727L407.309 219.056L545.779 192.301L544.74 186.972Z" fill="#F1F1F1"/>
<path d="M547.45 200.867L408.981 227.622L410.021 232.951L548.49 206.196L547.45 200.867Z" fill="#F1F1F1"/>
<path d="M550.162 214.762L411.692 241.517L412.732 246.847L551.202 220.092L550.162 214.762Z" fill="#F1F1F1"/>
<path d="M645.942 307.645L444.89 292.102L463.452 53.0294L664.504 68.5729L645.942 307.645Z" fill="white"/>
<path d="M645.942 307.645L444.89 292.102L463.452 53.0294L664.504 68.5729L645.942 307.645ZM448.712 288.844L642.67 303.839L660.683 71.8309L466.725 56.8358L448.712 288.844Z" fill="#E5E5E5"/>
<path d="M619.919 168.517L504.969 159.63L504.549 165.043L619.499 173.929L619.919 168.517Z" fill="#2168F4"/>
<path d="M618.827 182.589L503.877 173.702L503.456 179.115L618.406 188.002L618.827 182.589Z" fill="#2168F4"/>
<path d="M617.734 196.662L502.784 187.775L502.364 193.187L617.314 202.074L617.734 196.662Z" fill="#2168F4"/>
<path d="M495.079 165.939C497.038 166.091 498.749 164.632 498.9 162.681C499.052 160.73 497.586 159.026 495.627 158.875C493.668 158.723 491.957 160.182 491.806 162.133C491.654 164.084 493.12 165.788 495.079 165.939Z" fill="#2168F4"/>
<path d="M624.627 107.88L509.677 98.9928L509.257 104.405L624.207 113.292L624.627 107.88Z" fill="#E5E5E5"/>
<path d="M623.535 121.952L508.585 113.065L508.164 118.478L623.114 127.365L623.535 121.952Z" fill="#E5E5E5"/>
<path d="M622.442 136.024L507.492 127.137L507.072 132.55L622.022 141.437L622.442 136.024Z" fill="#E5E5E5"/>
<path d="M499.832 104.713C501.791 104.865 503.502 103.406 503.654 101.455C503.805 99.5043 502.34 97.8 500.381 97.6485C498.422 97.4971 496.711 98.9558 496.559 100.907C496.408 102.858 497.873 104.562 499.832 104.713Z" fill="#E5E5E5"/>
<path d="M615.166 229.743L500.216 220.856L499.796 226.269L614.746 235.155L615.166 229.743Z" fill="#E5E5E5"/>
<path d="M614.073 243.815L499.123 234.929L498.703 240.341L613.653 249.228L614.073 243.815Z" fill="#E5E5E5"/>
<path d="M612.98 257.888L498.031 249.001L497.61 254.413L612.56 263.3L612.98 257.888Z" fill="#E5E5E5"/>
<path d="M490.371 226.577C492.33 226.728 494.041 225.269 494.192 223.318C494.344 221.368 492.878 219.663 490.919 219.512C488.96 219.36 487.249 220.819 487.098 222.77C486.946 224.721 488.412 226.425 490.371 226.577Z" fill="#E5E5E5"/>
<path d="M634.958 327.506C657.653 329.261 677.474 312.361 679.229 289.759C680.984 267.157 664.008 247.412 641.312 245.657C618.617 243.902 598.796 260.803 597.041 283.405C595.286 306.007 612.262 325.752 634.958 327.506Z" fill="#2168F4"/>
<path d="M649.723 284.851L650.331 277.02C650.448 275.531 650.268 274.033 649.804 272.612C649.339 271.191 648.598 269.875 647.622 268.74C646.646 267.605 645.456 266.672 644.118 265.994C642.781 265.317 641.322 264.909 639.826 264.794C638.331 264.678 636.827 264.857 635.401 265.32C633.974 265.784 632.654 266.523 631.515 267.495C630.376 268.467 629.44 269.653 628.762 270.985C628.083 272.318 627.675 273.77 627.56 275.26L626.952 283.09C625.425 283.041 623.938 283.58 622.8 284.595C621.661 285.61 620.96 287.023 620.842 288.54L619.405 307.044L653.483 309.678L654.919 291.174C655.036 289.657 654.562 288.153 653.594 286.975C652.626 285.798 651.239 285.037 649.723 284.851V284.851ZM639.516 268.794C641.471 268.947 643.286 269.867 644.562 271.351C645.838 272.835 646.471 274.763 646.322 276.71L645.715 284.527L630.962 283.387L631.569 275.57C631.723 273.622 632.645 271.815 634.135 270.545C635.625 269.275 637.56 268.645 639.516 268.794Z" fill="white"/>
<path d="M640.692 293.346C640.733 292.82 640.637 292.292 640.412 291.814C640.188 291.336 639.844 290.924 639.412 290.617C638.981 290.311 638.478 290.12 637.951 290.065C637.424 290.009 636.892 290.091 636.406 290.3C635.919 290.51 635.496 290.842 635.177 291.262C634.857 291.683 634.653 292.179 634.583 292.702C634.513 293.225 634.58 293.757 634.777 294.247C634.974 294.736 635.295 295.167 635.709 295.497L635.194 302.127L638.641 302.394L639.156 295.763C639.59 295.516 639.958 295.166 640.225 294.745C640.493 294.323 640.653 293.843 640.692 293.346V293.346Z" fill="#2168F4"/>
<path d="M839.414 421.774L610.156 404.05C609.997 404.038 609.848 403.963 609.744 403.842C609.64 403.721 609.589 403.563 609.601 403.404C609.613 403.245 609.689 403.098 609.81 402.994C609.932 402.891 610.09 402.839 610.249 402.852L839.507 420.576C839.666 420.588 839.814 420.663 839.918 420.784C840.022 420.905 840.074 421.063 840.062 421.222C840.049 421.38 839.974 421.528 839.853 421.632C839.731 421.735 839.573 421.787 839.414 421.774Z" fill="#CBCBCB"/>
</g>
<g clip-path="url(#clip1_8_212)">
<path d="M595.497 746.65C580.244 738.639 568.21 722.796 568.749 705.589C582.954 717.802 601.023 724.602 619.76 724.786C626.987 724.831 635.029 724.129 640.591 728.739C644.053 731.607 645.832 736.107 646.322 740.573C646.812 745.039 646.151 749.542 645.491 753.986L645.856 755.046C628.653 756.02 610.75 754.662 595.497 746.65Z" fill="#F0F0F0"/>
<path d="M569.108 705.552C575.72 718.179 586.146 728.405 598.905 734.776C601.627 736.197 604.556 737.179 607.585 737.688C610.551 738.089 613.57 737.689 616.328 736.529C618.922 735.5 621.456 734.147 624.255 733.765C625.691 733.591 627.147 733.723 628.529 734.15C629.911 734.578 631.186 735.293 632.272 736.248C635.04 738.556 636.812 741.721 638.438 744.876C640.243 748.378 642.062 752.045 645.294 754.462C645.686 754.755 645.208 755.345 644.817 755.052C639.194 750.848 637.915 743.376 633.33 738.316C631.19 735.955 628.326 734.224 625.044 734.447C622.174 734.642 619.56 736.035 616.942 737.1C614.268 738.271 611.347 738.769 608.435 738.552C605.391 738.198 602.429 737.33 599.676 735.984C593.429 733.052 587.683 729.156 582.647 724.441C576.869 719.091 572.05 712.794 568.398 705.821C568.172 705.389 568.884 705.123 569.108 705.552L569.108 705.552Z" fill="white"/>
<path d="M594.676 732.966C593.316 734.96 591.291 736.405 588.962 737.044C586.634 737.683 584.154 737.474 581.965 736.455C581.522 736.247 581.824 735.551 582.267 735.759C584.304 736.712 586.614 736.906 588.782 736.307C590.949 735.707 592.83 734.353 594.085 732.489C594.359 732.085 594.948 732.564 594.676 732.966L594.676 732.966Z" fill="white"/>
<path d="M615.083 737.225C614.208 732.371 611.534 728.024 607.593 725.051C607.203 724.757 607.68 724.167 608.07 724.461C612.165 727.562 614.939 732.091 615.838 737.145C615.924 737.626 615.168 737.704 615.083 737.225V737.225Z" fill="white"/>
<path d="M577.791 718.686C578.478 718.025 578.99 717.203 579.28 716.294C579.571 715.386 579.631 714.42 579.456 713.483C579.364 713.002 580.12 712.925 580.211 713.402C580.4 714.439 580.332 715.506 580.013 716.51C579.695 717.514 579.134 718.425 578.382 719.163C578.317 719.238 578.225 719.286 578.126 719.297C578.027 719.307 577.927 719.28 577.848 719.22C577.77 719.156 577.72 719.065 577.709 718.965C577.699 718.865 577.728 718.765 577.791 718.686V718.686Z" fill="white"/>
<path d="M614.845 669.874C614.911 670.172 614.977 670.47 615.048 670.771C615.952 674.778 617.179 678.704 618.719 682.512C618.834 682.809 618.954 683.107 619.077 683.4C622.884 692.534 628.356 700.884 635.214 708.024C637.946 710.862 640.889 713.489 644.02 715.882C648.343 719.186 653.294 722.424 656.187 726.832C656.494 727.289 656.773 727.764 657.021 728.254L647.123 754.52C647.07 754.568 647.024 754.619 646.971 754.668L646.624 755.735C646.454 755.622 646.28 755.502 646.11 755.39C646.011 755.326 645.914 755.255 645.815 755.191C645.75 755.146 645.685 755.1 645.623 755.064C645.601 755.049 645.58 755.034 645.564 755.021C645.503 754.984 645.449 754.943 645.394 754.909C644.42 754.241 643.448 753.565 642.48 752.881C642.474 752.879 642.474 752.879 642.47 752.871C635.105 747.642 628.112 741.753 622.236 734.991C622.059 734.788 621.876 734.582 621.704 734.367C619.073 731.304 616.696 728.032 614.597 724.582C613.454 722.69 612.408 720.741 611.463 718.742C609.029 713.575 607.424 708.057 606.707 702.392C605.279 691.097 607.481 679.473 614.317 670.55C614.491 670.322 614.664 670.099 614.845 669.874Z" fill="#F0F0F0"/>
<path d="M615.157 670.058C612.828 684.116 614.992 698.551 621.341 711.312C622.659 714.083 624.406 716.63 626.518 718.858C628.645 720.962 631.297 722.459 634.199 723.192C636.891 723.931 639.73 724.375 642.195 725.754C643.446 726.479 644.53 727.46 645.376 728.632C646.221 729.805 646.809 731.143 647.101 732.558C647.92 736.066 647.429 739.658 646.826 743.155C646.157 747.037 645.4 751.058 646.525 754.932C646.661 755.401 645.924 755.585 645.788 755.116C643.831 748.377 647.312 741.643 646.699 734.846C646.413 731.674 645.169 728.569 642.414 726.773C640.004 725.202 637.077 724.742 634.345 724.018C631.504 723.343 628.872 721.984 626.677 720.059C624.459 717.945 622.616 715.47 621.229 712.739C618.008 706.641 615.766 700.075 614.586 693.281C613.196 685.535 613.142 677.609 614.428 669.846C614.507 669.366 615.236 669.581 615.157 670.058V670.058Z" fill="white"/>
<path d="M619.056 707.323C616.769 708.096 614.28 708.032 612.035 707.141C609.791 706.251 607.935 704.592 606.801 702.462C606.573 702.03 607.234 701.656 607.463 702.088C608.515 704.074 610.243 705.619 612.335 706.444C614.427 707.269 616.746 707.32 618.871 706.587C619.334 706.428 619.516 707.165 619.056 707.323L619.056 707.323Z" fill="white"/>
<path d="M632.785 722.998C635.012 718.596 635.496 713.518 634.141 708.775C634.006 708.305 634.743 708.121 634.877 708.59C636.278 713.529 635.764 718.813 633.436 723.388C633.214 723.824 632.564 723.432 632.785 722.998Z" fill="white"/>
<path d="M614.176 685.767C615.124 685.652 616.028 685.304 616.807 684.753C617.587 684.203 618.217 683.468 618.642 682.614C618.858 682.175 619.508 682.568 619.293 683.004C618.82 683.945 618.122 684.756 617.263 685.366C616.403 685.976 615.406 686.367 614.361 686.503C614.263 686.524 614.161 686.508 614.076 686.456C613.99 686.405 613.927 686.323 613.9 686.227C613.876 686.13 613.892 686.027 613.943 685.94C613.995 685.854 614.079 685.792 614.176 685.767L614.176 685.767Z" fill="white"/>
<path d="M1034.11 705.547C1047.6 694.842 1056.47 677.04 1052.73 660.234C1041.05 674.873 1024.57 684.911 1006.19 688.573C999.101 689.959 991.069 690.764 986.464 696.327C983.598 699.788 982.689 704.54 983.041 709.019C983.393 713.497 984.883 717.799 986.36 722.042L986.2 723.152C1003.28 720.913 1020.62 716.252 1034.11 705.547Z" fill="#F0F0F0"/>
<path d="M1052.37 660.265C1048.23 673.899 1039.89 685.883 1028.55 694.514C1026.14 696.415 1023.44 697.925 1020.56 698.988C1017.72 699.932 1014.68 700.1 1011.76 699.473C1009.02 698.944 1006.27 698.085 1003.45 698.23C1002.01 698.326 1000.6 698.725 999.325 699.402C998.047 700.079 996.927 701.019 996.039 702.159C993.75 704.941 992.599 708.38 991.59 711.781C990.47 715.558 989.367 719.499 986.642 722.474C986.312 722.834 986.891 723.325 987.221 722.965C991.962 717.789 991.824 710.211 995.385 704.387C997.047 701.67 999.539 699.437 1002.8 699.047C1005.66 698.705 1008.49 699.588 1011.26 700.148C1014.11 700.801 1017.07 700.748 1019.89 699.994C1022.81 699.081 1025.56 697.677 1028.02 695.843C1033.61 691.802 1038.53 686.907 1042.59 681.339C1047.27 675.009 1050.83 667.926 1053.12 660.397C1053.26 659.931 1052.51 659.801 1052.37 660.265L1052.37 660.265Z" fill="white"/>
<path d="M1032.37 691.95C1034.07 693.655 1036.33 694.699 1038.74 694.895C1041.15 695.09 1043.55 694.424 1045.51 693.016C1045.9 692.73 1045.47 692.102 1045.08 692.388C1043.26 693.703 1041.02 694.323 1038.78 694.136C1036.54 693.95 1034.44 692.969 1032.86 691.371C1032.51 691.025 1032.02 691.605 1032.37 691.95L1032.37 691.95Z" fill="white"/>
<path d="M1013.11 699.925C1013.06 694.993 1014.88 690.225 1018.2 686.573C1018.53 686.211 1017.95 685.72 1017.62 686.081C1014.17 689.889 1012.29 694.854 1012.35 699.986C1012.36 700.476 1013.12 700.412 1013.11 699.925V699.925Z" fill="white"/>
<path d="M1046.29 674.782C1045.49 674.26 1044.84 673.547 1044.38 672.709C1043.93 671.871 1043.69 670.933 1043.68 669.979C1043.68 669.49 1042.93 669.554 1042.93 670.04C1042.93 671.094 1043.2 672.13 1043.7 673.057C1044.2 673.984 1044.92 674.775 1045.8 675.361C1045.88 675.423 1045.98 675.453 1046.08 675.445C1046.18 675.437 1046.27 675.391 1046.33 675.317C1046.4 675.24 1046.43 675.141 1046.42 675.041C1046.41 674.941 1046.37 674.848 1046.29 674.782V674.782Z" fill="white"/>
<path d="M1000.78 633.707C1000.77 634.013 1000.76 634.318 1000.74 634.627C1000.6 638.731 1000.13 642.817 999.329 646.845C999.272 647.157 999.209 647.473 999.143 647.783C997.106 657.465 993.288 666.686 987.882 674.975C985.728 678.271 983.326 681.399 980.697 684.331C977.065 688.381 972.805 692.482 970.785 697.351C970.568 697.856 970.383 698.375 970.231 698.903L984.857 722.87C984.917 722.908 984.973 722.949 985.033 722.987L985.574 723.971C985.72 723.829 985.868 723.679 986.015 723.537C986.1 723.455 986.182 723.368 986.267 723.286C986.322 723.23 986.378 723.174 986.432 723.126C986.45 723.107 986.469 723.088 986.482 723.073C986.535 723.025 986.58 722.975 986.628 722.931C987.461 722.094 988.289 721.25 989.113 720.398C989.118 720.395 989.118 720.395 989.12 720.386C995.381 713.88 1001.15 706.795 1005.66 699.06C1005.8 698.827 1005.94 698.591 1006.07 698.347C1008.09 694.849 1009.81 691.192 1011.23 687.413C1012 685.342 1012.66 683.232 1013.22 681.093C1014.64 675.564 1015.19 669.845 1014.84 664.145C1014.14 652.783 1009.8 641.771 1001.42 634.274C1001.21 634.082 1001 633.896 1000.78 633.707Z" fill="#F0F0F0"/>
<path d="M1000.51 633.947C1005.42 647.326 1005.98 661.91 1002.13 675.628C1001.35 678.596 1000.11 681.422 998.448 684.004C996.75 686.466 994.424 688.429 991.71 689.689C989.203 690.915 986.497 691.879 984.332 693.692C983.237 694.636 982.355 695.802 981.743 697.111C981.131 698.42 980.803 699.844 980.781 701.289C980.631 704.887 981.784 708.326 983.028 711.649C984.41 715.339 985.904 719.149 985.522 723.164C985.475 723.651 986.233 723.694 986.28 723.208C986.945 716.223 982.268 710.254 981.602 703.462C981.292 700.292 981.935 697.01 984.307 694.733C986.381 692.742 989.171 691.746 991.72 690.527C994.386 689.337 996.719 687.513 998.516 685.213C1000.3 682.725 1001.65 679.951 1002.5 677.01C1004.53 670.42 1005.51 663.552 1005.4 656.658C1005.32 648.789 1003.89 640.991 1001.18 633.603C1001.01 633.145 1000.34 633.492 1000.51 633.947V633.947Z" fill="white"/>
<path d="M1003.63 671.284C1006.02 671.619 1008.45 671.093 1010.49 669.801C1012.53 668.509 1014.04 666.535 1014.76 664.231C1014.91 663.764 1014.19 663.52 1014.04 663.987C1013.38 666.134 1011.97 667.973 1010.07 669.172C1008.17 670.371 1005.9 670.851 1003.67 670.527C1003.19 670.457 1003.15 671.215 1003.63 671.284L1003.63 671.284Z" fill="white"/>
<path d="M993.063 689.236C990.054 685.325 988.631 680.425 989.077 675.513C989.122 675.026 988.364 674.982 988.319 675.469C987.864 680.581 989.356 685.677 992.496 689.74C992.795 690.127 993.361 689.621 993.063 689.236V689.236Z" fill="white"/>
<path d="M1004.4 649.198C1003.45 649.262 1002.49 649.087 1001.63 648.691C1000.76 648.295 1000 647.69 999.424 646.93C999.13 646.539 998.565 647.046 998.857 647.434C999.498 648.271 1000.33 648.939 1001.29 649.378C1002.25 649.818 1003.3 650.016 1004.36 649.956C1004.46 649.959 1004.55 649.923 1004.63 649.857C1004.7 649.791 1004.75 649.699 1004.76 649.599C1004.76 649.499 1004.73 649.401 1004.66 649.326C1004.59 649.251 1004.5 649.205 1004.4 649.198L1004.4 649.198Z" fill="white"/>
<path d="M616.038 661.471C615.464 661.195 614.957 660.796 614.553 660.303C614.149 659.81 613.859 659.235 613.701 658.618C613.544 658 613.524 657.356 613.643 656.73C613.762 656.105 614.017 655.513 614.39 654.996L605.484 642.324L613.534 642.09L620.757 654.16C621.584 654.844 622.132 655.806 622.296 656.866C622.46 657.926 622.23 659.009 621.648 659.91C621.067 660.811 620.174 661.468 619.14 661.756C618.107 662.043 617.003 661.942 616.038 661.471Z" fill="#FFB6B6"/>
<path d="M565.774 758.257L571.068 757.761L571.667 737.126L563.854 737.859L565.774 758.257Z" fill="#FFB6B6"/>
<path d="M564.262 756.656L574.686 755.679L574.686 755.679C576.448 755.514 578.203 756.055 579.566 757.183C580.929 758.311 581.788 759.934 581.954 761.694L581.974 761.909L564.907 763.509L564.262 756.656Z" fill="#2F2E41"/>
<path d="M602.039 754.859L607.333 754.363L607.931 733.728L600.118 734.461L602.039 754.859Z" fill="#FFB6B6"/>
<path d="M600.526 753.258L610.95 752.281L610.951 752.281C612.713 752.116 614.468 752.657 615.831 753.785C617.194 754.913 618.053 756.535 618.219 758.295L618.239 758.511L601.172 760.111L600.526 753.258Z" fill="#2F2E41"/>
<path d="M605.236 642.927C605.236 642.927 608.641 663.505 606.755 674.206C604.87 684.907 610.295 748.043 610.295 748.043L600.684 748.943L584.272 663.848L573.178 751.826L563.965 752.055L559.428 650.035L605.236 642.927Z" fill="#2F2E41"/>
<path d="M556.566 577.046L563.409 571.001L575.973 572.526L580.05 580.125L586.06 582.432C588.036 583.19 589.799 584.417 591.196 586.006C592.593 587.595 593.584 589.499 594.082 591.555L607.613 647.39L559.428 650.035L547.342 583.917C547.216 583.227 547.23 582.518 547.383 581.832C547.535 581.147 547.824 580.5 548.232 579.928C548.64 579.356 549.158 578.872 549.757 578.504C550.355 578.137 551.021 577.892 551.716 577.786L556.566 577.046Z" fill="#3F3D56"/>
<path d="M589.514 586.569L594.511 592.125L619.363 649.171L610.651 653.641L593.574 627.574L589.514 586.569Z" fill="#3F3D56"/>
<path d="M571.497 567.422C577.419 566.867 581.769 561.62 581.212 555.703C580.655 549.786 575.403 545.439 569.48 545.994C563.558 546.549 559.209 551.796 559.765 557.713C560.322 563.63 565.575 567.977 571.497 567.422Z" fill="#FFB9B9"/>
<path opacity="0.1" d="M551.26 602.978L571.048 625.655L591.807 636.566L551.26 602.978Z" fill="black"/>
<path d="M565.535 564.986C564.649 563.568 563.729 562.02 563.86 560.354C563.991 558.688 565.739 557.083 567.269 557.759C567.667 555.525 570.247 554.322 572.518 554.363C574.788 554.404 576.959 555.293 579.216 555.551C581.472 555.808 584.125 555.188 585.14 553.158L582.274 553.377L584.929 549.644L581.45 549.71C582.525 548.308 582.001 546.146 580.718 544.93C579.436 543.714 577.619 543.252 575.867 543.016C572.369 542.549 568.813 542.8 565.416 543.754C563.81 544.158 562.291 544.851 560.934 545.799C559.662 546.748 558.655 548.009 558.011 549.459C557.322 551.092 557.034 552.865 557.17 554.632C557.341 556.999 558.105 559.286 559.39 561.282C560.675 563.279 562.441 564.921 564.527 566.059" fill="#2F2E41"/>
<path d="M983.33 724.576L650.554 755.761C647.127 756.078 643.713 755.024 641.062 752.83C638.411 750.636 636.739 747.481 636.413 744.057L612.922 494.454C612.604 491.03 613.658 487.619 615.854 484.971C618.049 482.323 621.207 480.653 624.633 480.328L957.409 449.143C960.836 448.826 964.25 449.88 966.901 452.074C969.552 454.268 971.224 457.423 971.55 460.846L995.041 710.45C995.359 713.874 994.305 717.284 992.109 719.933C989.914 722.581 986.757 724.251 983.33 724.576V724.576Z" fill="#E4E4E4"/>
<path d="M884.441 571.596L833.072 576.41C830.533 576.648 828.004 575.869 826.04 574.243C824.076 572.618 822.839 570.28 822.6 567.743C822.361 565.207 823.141 562.68 824.767 560.718C826.393 558.756 828.733 557.52 831.272 557.282L882.641 552.469C885.18 552.231 887.709 553.01 889.673 554.635C891.637 556.261 892.875 558.599 893.113 561.135C893.352 563.672 892.572 566.199 890.946 568.161C889.32 570.123 886.98 571.359 884.441 571.596Z" fill="white"/>
<path d="M841.914 601.952L829.789 603.089C828.858 603.176 827.931 602.89 827.211 602.294C826.49 601.698 826.037 600.841 825.949 599.911C825.862 598.981 826.147 598.054 826.744 597.335C827.34 596.615 828.198 596.162 829.129 596.075L841.254 594.939C842.185 594.852 843.112 595.137 843.832 595.733C844.553 596.329 845.006 597.187 845.094 598.117C845.181 599.047 844.896 599.973 844.299 600.693C843.703 601.412 842.845 601.865 841.914 601.952V601.952Z" fill="white"/>
<path d="M892.326 597.228L880.201 598.365C879.27 598.452 878.343 598.166 877.623 597.57C876.903 596.974 876.449 596.117 876.361 595.187C876.274 594.257 876.56 593.33 877.156 592.611C877.752 591.891 878.61 591.438 879.541 591.351L891.666 590.215C892.597 590.127 893.525 590.413 894.245 591.009C894.965 591.605 895.419 592.462 895.506 593.393C895.594 594.323 895.308 595.249 894.711 595.969C894.115 596.688 893.257 597.141 892.326 597.228V597.228Z" fill="white"/>
<path d="M866.801 599.62L854.676 600.757C853.745 600.844 852.818 600.558 852.098 599.962C851.377 599.366 850.924 598.509 850.836 597.579C850.749 596.649 851.034 595.722 851.631 595.003C852.227 594.283 853.085 593.83 854.016 593.743L866.141 592.607C867.072 592.519 867.999 592.805 868.719 593.401C869.44 593.997 869.893 594.854 869.981 595.785C870.068 596.715 869.783 597.641 869.186 598.361C868.59 599.08 867.732 599.533 866.801 599.62V599.62Z" fill="white"/>
<path d="M843.174 615.342L831.049 616.478C830.118 616.565 829.191 616.279 828.471 615.683C827.751 615.087 827.297 614.23 827.209 613.3C827.122 612.37 827.408 611.443 828.004 610.724C828.6 610.005 829.458 609.551 830.389 609.464L842.514 608.328C843.445 608.241 844.373 608.526 845.093 609.122C845.813 609.718 846.267 610.576 846.354 611.506C846.442 612.436 846.156 613.362 845.559 614.082C844.963 614.801 844.105 615.254 843.174 615.342Z" fill="white"/>
<path d="M893.586 610.617L881.461 611.754C880.53 611.841 879.603 611.555 878.883 610.959C878.163 610.363 877.709 609.506 877.621 608.576C877.534 607.646 877.82 606.719 878.416 606C879.012 605.28 879.87 604.827 880.801 604.74L892.926 603.604C893.857 603.516 894.785 603.802 895.505 604.398C896.225 604.994 896.679 605.852 896.766 606.782C896.854 607.712 896.568 608.638 895.971 609.358C895.375 610.077 894.517 610.53 893.586 610.617Z" fill="white"/>
<path d="M868.061 613.009L855.936 614.146C855.005 614.233 854.078 613.947 853.358 613.351C852.638 612.755 852.184 611.898 852.096 610.968C852.009 610.038 852.295 609.111 852.891 608.392C853.487 607.672 854.345 607.219 855.276 607.132L867.401 605.996C868.332 605.908 869.26 606.194 869.98 606.79C870.7 607.386 871.154 608.244 871.241 609.174C871.329 610.104 871.043 611.03 870.446 611.75C869.85 612.469 868.992 612.922 868.061 613.009Z" fill="white"/>
<path d="M844.434 628.731L832.309 629.867C831.378 629.954 830.451 629.668 829.731 629.072C829.011 628.476 828.557 627.619 828.469 626.689C828.382 625.759 828.668 624.832 829.264 624.113C829.86 623.394 830.718 622.941 831.649 622.853L843.774 621.717C844.705 621.63 845.633 621.916 846.353 622.512C847.073 623.108 847.527 623.965 847.614 624.895C847.702 625.825 847.416 626.752 846.819 627.471C846.223 628.19 845.365 628.643 844.434 628.731Z" fill="white"/>
<path d="M894.846 624.006L882.721 625.143C881.79 625.23 880.863 624.944 880.143 624.348C879.423 623.752 878.969 622.895 878.881 621.965C878.794 621.035 879.08 620.108 879.676 619.389C880.272 618.669 881.13 618.216 882.061 618.129L894.186 616.993C895.117 616.906 896.045 617.191 896.765 617.787C897.485 618.383 897.939 619.241 898.026 620.171C898.114 621.101 897.828 622.027 897.231 622.747C896.635 623.466 895.777 623.919 894.846 624.006Z" fill="white"/>
<path d="M869.321 626.398L857.196 627.535C856.265 627.622 855.338 627.336 854.618 626.74C853.898 626.144 853.444 625.287 853.356 624.357C853.269 623.427 853.555 622.5 854.151 621.781C854.747 621.061 855.605 620.608 856.536 620.521L868.661 619.385C869.592 619.298 870.52 619.583 871.24 620.179C871.96 620.775 872.414 621.633 872.501 622.563C872.589 623.493 872.303 624.419 871.706 625.139C871.11 625.858 870.252 626.311 869.321 626.398Z" fill="white"/>
<path d="M845.694 642.12L833.569 643.256C832.638 643.343 831.711 643.057 830.991 642.461C830.271 641.865 829.817 641.008 829.729 640.078C829.642 639.148 829.928 638.221 830.524 637.502C831.12 636.783 831.978 636.33 832.909 636.242L845.034 635.106C845.965 635.019 846.893 635.305 847.613 635.901C848.333 636.497 848.787 637.354 848.874 638.284C848.962 639.214 848.676 640.141 848.079 640.86C847.483 641.579 846.625 642.032 845.694 642.12Z" fill="white"/>
<path d="M896.106 637.396L883.981 638.532C883.051 638.619 882.123 638.333 881.403 637.737C880.683 637.141 880.229 636.284 880.142 635.354C880.054 634.424 880.34 633.497 880.936 632.778C881.533 632.059 882.391 631.605 883.321 631.518L895.446 630.382C896.377 630.295 897.305 630.581 898.025 631.176C898.745 631.772 899.199 632.63 899.286 633.56C899.374 634.49 899.088 635.417 898.492 636.136C897.895 636.855 897.037 637.308 896.106 637.396Z" fill="white"/>
<path d="M870.581 639.788L858.456 640.924C857.525 641.011 856.598 640.725 855.878 640.129C855.158 639.533 854.704 638.676 854.616 637.746C854.529 636.816 854.815 635.889 855.411 635.17C856.007 634.451 856.865 633.997 857.796 633.91L869.921 632.774C870.852 632.687 871.78 632.972 872.5 633.568C873.22 634.164 873.674 635.022 873.761 635.952C873.849 636.882 873.563 637.808 872.966 638.528C872.37 639.247 871.512 639.7 870.581 639.788Z" fill="white"/>
<path d="M762.374 635.777C780.348 634.093 793.549 618.169 791.859 600.211C790.168 582.253 774.228 569.06 756.254 570.744C738.28 572.429 725.08 588.352 726.77 606.311C728.46 624.269 744.4 637.461 762.374 635.777Z" fill="#CACACA"/>
<path d="M763.065 643.109C760.527 643.344 757.998 642.564 756.035 640.939C754.072 639.314 752.834 636.978 752.592 634.443L746.892 573.873C746.773 572.616 746.902 571.349 747.274 570.143C747.645 568.936 748.251 567.815 749.056 566.843C749.861 565.871 750.851 565.067 751.967 564.477C753.084 563.887 754.306 563.522 755.564 563.405C756.821 563.287 758.09 563.418 759.297 563.79C760.504 564.162 761.626 564.768 762.599 565.574C763.571 566.379 764.376 567.369 764.966 568.485C765.555 569.601 765.919 570.822 766.037 572.079L771.737 632.649C771.973 635.184 771.192 637.71 769.566 639.671C767.94 641.632 765.602 642.869 763.065 643.109V643.109Z" fill="white"/>
<path d="M842.091 571.422L833.156 572.26C832.817 572.291 832.48 572.187 832.218 571.971C831.956 571.754 831.791 571.442 831.759 571.104C831.727 570.766 831.831 570.429 832.048 570.167C832.265 569.905 832.577 569.74 832.916 569.709L841.851 568.871C842.189 568.84 842.526 568.944 842.788 569.16C843.05 569.377 843.215 569.689 843.247 570.027C843.279 570.366 843.175 570.703 842.958 570.964C842.741 571.226 842.429 571.391 842.091 571.422Z" fill="#E4E4E4"/>
<path d="M856.159 570.426L847.224 571.263C846.886 571.295 846.548 571.191 846.287 570.974C846.025 570.757 845.86 570.445 845.828 570.107C845.796 569.769 845.9 569.432 846.117 569.17C846.334 568.908 846.646 568.744 846.984 568.712L855.919 567.875C856.258 567.843 856.595 567.947 856.857 568.164C857.119 568.38 857.284 568.692 857.316 569.03C857.347 569.369 857.243 569.706 857.027 569.967C856.81 570.229 856.498 570.394 856.159 570.426Z" fill="#E4E4E4"/>
<path d="M870.228 569.429L861.293 570.266C860.955 570.298 860.617 570.194 860.355 569.977C860.093 569.76 859.928 569.449 859.897 569.11C859.865 568.772 859.969 568.435 860.186 568.173C860.402 567.912 860.715 567.747 861.053 567.715L869.988 566.878C870.326 566.846 870.664 566.95 870.926 567.167C871.188 567.384 871.353 567.695 871.384 568.034C871.416 568.372 871.312 568.709 871.095 568.971C870.879 569.232 870.567 569.397 870.228 569.429Z" fill="#E4E4E4"/>
<path d="M884.297 568.432L875.362 569.269C875.023 569.301 874.686 569.197 874.424 568.98C874.162 568.764 873.997 568.452 873.965 568.113C873.934 567.775 874.038 567.438 874.254 567.176C874.471 566.915 874.783 566.75 875.122 566.718L884.057 565.881C884.395 565.849 884.733 565.953 884.995 566.17C885.256 566.387 885.421 566.699 885.453 567.037C885.485 567.375 885.381 567.712 885.164 567.974C884.947 568.235 884.635 568.4 884.297 568.432Z" fill="#E4E4E4"/>
<path d="M676.356 713.624C676.504 715.203 676.965 716.737 677.711 718.137C678.457 719.537 679.474 720.774 680.703 721.778L675.432 722.272C673.876 722.418 672.307 722.256 670.814 721.796C669.322 721.336 667.934 720.587 666.731 719.591C665.528 718.595 664.532 717.373 663.802 715.993C663.072 714.613 662.621 713.103 662.474 711.549L644.421 519.714C644.274 518.16 644.436 516.593 644.896 515.102C645.356 513.61 646.106 512.224 647.102 511.022C648.099 509.82 649.322 508.826 650.703 508.097C652.084 507.368 653.595 506.917 655.151 506.772L662.822 506.053C661.112 507.274 659.752 508.921 658.879 510.832C658.006 512.742 657.65 514.848 657.846 516.939L676.356 713.624Z" fill="#CACACA"/>
<path d="M1069.16 717.795L470.405 773.905C470.204 773.923 470.004 773.861 469.848 773.732C469.693 773.603 469.595 773.418 469.576 773.217C469.557 773.016 469.619 772.815 469.747 772.66C469.876 772.504 470.061 772.406 470.262 772.386L1069.01 716.276C1069.21 716.258 1069.42 716.319 1069.57 716.448C1069.73 716.577 1069.83 716.763 1069.84 716.964C1069.86 717.166 1069.8 717.366 1069.67 717.522C1069.54 717.678 1069.36 717.776 1069.16 717.795Z" fill="#CACACA"/>
<path d="M660.873 562.785C656.734 562.035 652.588 561.368 648.434 560.786C634.229 558.775 619.914 557.642 605.569 557.394C603.103 556.986 600.577 557.568 598.539 559.013C596.501 560.458 595.117 562.649 594.688 565.109L590.059 591.914C589.635 594.385 590.209 596.923 591.656 598.971C593.103 601.019 595.304 602.41 597.776 602.839L597.873 602.849C607.354 603.035 616.963 603.627 626.559 604.631C627.417 604.718 628.269 604.812 629.128 604.912C632.206 605.254 635.278 605.639 638.346 606.067C639.69 606.25 641.028 606.446 642.373 606.648C645.991 607.197 649.617 607.803 653.25 608.466C657.291 609.206 661.342 610.021 665.402 610.91C665.842 610.997 666.282 611.091 666.716 611.192L662.183 563.029C661.75 562.941 661.311 562.86 660.873 562.785Z" fill="white"/>
<path d="M660.873 562.785C656.734 562.035 652.588 561.368 648.434 560.786C634.229 558.775 619.914 557.642 605.569 557.394C603.103 556.986 600.577 557.568 598.539 559.013C596.501 560.458 595.117 562.649 594.688 565.109L590.059 591.914C589.635 594.385 590.209 596.923 591.656 598.971C593.103 601.019 595.304 602.41 597.776 602.839L597.873 602.849C607.354 603.035 616.963 603.627 626.559 604.631C627.417 604.718 628.269 604.812 629.128 604.912C632.206 605.254 635.278 605.639 638.346 606.067C639.69 606.25 641.028 606.446 642.373 606.648C645.991 607.197 649.617 607.803 653.25 608.466C657.291 609.206 661.342 610.021 665.402 610.91C665.842 610.997 666.282 611.091 666.716 611.192L666.589 609.846C666.149 609.752 665.709 609.659 665.275 609.564C661.542 608.75 657.82 608.003 654.108 607.324C652.718 607.062 651.33 606.812 649.943 606.576C647.444 606.148 644.953 605.746 642.472 605.372C641.152 605.168 639.836 604.976 638.523 604.797C638.425 604.78 638.321 604.771 638.223 604.754C635.985 604.443 633.746 604.155 631.504 603.891C630.645 603.792 629.786 603.692 628.928 603.599C618.571 602.447 608.181 601.768 597.946 601.569C595.82 601.187 593.931 599.981 592.691 598.214C591.45 596.448 590.959 594.263 591.322 592.137L595.951 565.325C596.322 563.192 597.526 561.293 599.297 560.045C601.069 558.797 603.263 558.303 605.4 558.67L605.496 558.674C619.659 558.916 633.793 560.023 647.82 561.989C647.964 562.014 648.107 562.033 648.251 562.051C652.505 562.656 656.754 563.343 660.998 564.111C661.43 564.187 661.869 564.268 662.308 564.355L662.183 563.029C661.75 562.941 661.311 562.86 660.873 562.785Z" fill="#2168F4"/>
<path d="M662.246 563.692L666.652 610.516C666.212 610.416 665.778 610.321 665.338 610.227C661.453 609.376 657.562 608.595 653.665 607.886C649.924 607.195 646.176 606.567 642.422 606.001C641.09 605.804 639.765 605.613 638.434 605.429C638.362 605.204 638.289 604.979 638.223 604.754C637.883 603.68 637.594 602.587 637.349 601.485C637.245 601.064 637.16 600.641 637.074 600.211C635.76 593.444 636.047 586.463 637.913 579.827C639.779 573.19 643.171 567.082 647.82 561.989C647.988 561.793 648.163 561.603 648.34 561.419C652.554 562.015 656.753 562.693 660.936 563.455C661.374 563.523 661.813 563.604 662.246 563.692Z" fill="#2168F4"/>
<path d="M621.672 586.835L603.729 586.407C603.098 586.392 602.47 586.501 601.881 586.729C601.292 586.956 600.754 587.297 600.297 587.732C599.84 588.167 599.473 588.688 599.218 589.265C598.962 589.842 598.823 590.464 598.808 591.094C598.793 591.725 598.902 592.353 599.13 592.941C599.358 593.53 599.699 594.068 600.135 594.524C600.571 594.981 601.092 595.347 601.669 595.603C602.247 595.858 602.869 595.997 603.5 596.013L621.443 596.441C622.716 596.468 623.948 595.99 624.868 595.112C625.789 594.233 626.323 593.025 626.353 591.754C626.383 590.482 625.907 589.25 625.03 588.328C624.153 587.406 622.945 586.869 621.672 586.835V586.835ZM625.081 591.726C625.057 592.659 624.663 593.545 623.986 594.188C623.309 594.832 622.405 595.181 621.47 595.158L603.527 594.73C602.595 594.704 601.711 594.311 601.069 593.635C600.427 592.959 600.079 592.057 600.101 591.126C600.123 590.194 600.514 589.31 601.188 588.666C601.861 588.022 602.763 587.671 603.695 587.69L621.638 588.119C622.573 588.144 623.459 588.537 624.104 589.213C624.749 589.889 625.1 590.793 625.081 591.726L625.081 591.726Z" fill="#2168F4"/>
<path d="M663.279 574.658L665.369 596.866C664.982 597.15 664.576 597.408 664.154 597.636C661.959 598.872 659.451 599.441 656.937 599.272C654.423 599.103 652.013 598.204 650.004 596.685C649.81 596.542 649.615 596.387 649.426 596.225C649.238 596.069 649.055 595.899 648.878 595.729C646.743 593.699 645.366 591.002 644.974 588.084C644.582 585.166 645.199 582.202 646.722 579.682C648.246 577.162 650.584 575.237 653.352 574.226C656.119 573.215 659.149 573.178 661.941 574.121C662.396 574.276 662.843 574.456 663.279 574.658V574.658Z" fill="white"/>
<path d="M663.514 590.851C658.591 592.368 653.712 593.993 648.877 595.728C647.071 596.374 645.273 597.035 643.483 597.713C641.345 598.525 639.209 599.357 637.074 600.211C634.351 601.303 631.636 602.432 628.928 603.599C628.143 603.943 627.351 604.287 626.559 604.631C619.037 607.948 611.592 611.54 604.299 615.381C601.941 616.211 600.007 617.937 598.918 620.185C597.828 622.432 597.672 625.019 598.483 627.382L607.36 653.101C608.18 655.47 609.908 657.417 612.163 658.515C614.418 659.613 617.017 659.773 619.389 658.959L619.476 658.919C631.472 652.636 643.831 647.07 656.487 642.252C660.266 640.811 664.09 639.427 667.961 638.102C668.379 637.96 668.791 637.819 669.209 637.683L664.766 590.47C664.346 590.587 663.933 590.716 663.514 590.851Z" fill="white"/>
<path d="M663.514 590.851C658.591 592.368 653.712 593.993 648.877 595.728C647.071 596.374 645.273 597.035 643.483 597.713C641.345 598.525 639.209 599.357 637.074 600.211C634.351 601.303 631.636 602.432 628.928 603.599C628.143 603.943 627.351 604.287 626.559 604.631C619.037 607.948 611.592 611.54 604.299 615.381C601.941 616.211 600.007 617.937 598.918 620.185C597.828 622.432 597.672 625.019 598.483 627.382L607.36 653.101C608.18 655.47 609.908 657.417 612.163 658.515C614.418 659.613 617.017 659.773 619.389 658.959L619.476 658.919C631.472 652.636 643.831 647.07 656.487 642.252C660.266 640.811 664.09 639.427 667.961 638.102C668.379 637.96 668.791 637.819 669.209 637.683L669.086 636.369C668.668 636.512 668.256 636.653 667.838 636.795C667.526 636.902 667.208 637.008 666.896 637.115C663.23 638.378 659.609 639.691 656.033 641.053C655.94 641.087 655.841 641.129 655.747 641.163C643.156 645.968 630.859 651.512 618.923 657.768C616.876 658.454 614.639 658.305 612.701 657.354C610.762 656.402 609.277 654.724 608.57 652.685L599.699 626.965C598.994 624.917 599.131 622.674 600.08 620.727C601.029 618.78 602.712 617.288 604.76 616.58L604.852 616.539C612.795 612.347 620.913 608.46 629.129 604.912C629.92 604.567 630.712 604.229 631.504 603.891C633.449 603.072 635.397 602.27 637.349 601.485C639.408 600.655 641.467 599.849 643.526 599.066C643.663 599.015 643.8 598.964 643.937 598.912C645.951 598.151 647.973 597.408 650.004 596.684C654.507 595.079 659.051 593.566 663.636 592.146C664.049 592.017 664.468 591.888 664.888 591.765L664.766 590.47C664.346 590.587 663.933 590.716 663.514 590.851Z" fill="#2168F4"/>
<path d="M664.826 591.114L669.147 637.026C668.735 637.161 668.317 637.297 667.899 637.439C663.995 638.782 660.115 640.188 656.257 641.656C656.081 641.492 655.911 641.328 655.747 641.163C651.157 636.715 647.585 631.327 645.277 625.369C642.968 619.411 641.977 613.024 642.373 606.648C642.385 606.435 642.403 606.215 642.422 606.001C642.434 605.794 642.453 605.58 642.472 605.372C642.669 603.247 643.022 601.14 643.526 599.066C643.587 598.816 643.647 598.566 643.713 598.316C645.609 597.598 647.513 596.9 649.426 596.224C654.102 594.538 658.818 592.962 663.575 591.495C663.987 591.36 664.407 591.237 664.826 591.114Z" fill="#2168F4"/>
<path d="M639.087 635.482C638.498 634.353 637.485 633.503 636.269 633.119C635.054 632.735 633.736 632.848 632.604 633.433L616.676 641.693C615.547 642.281 614.697 643.293 614.314 644.507C613.931 645.72 614.046 647.036 614.634 648.166C615.221 649.295 616.233 650.146 617.447 650.53C618.661 650.915 619.978 650.803 621.109 650.218L637.038 641.959C638.167 641.369 639.016 640.357 639.4 639.144C639.784 637.93 639.672 636.613 639.087 635.482V635.482ZM636.447 640.818L620.52 649.083C619.69 649.513 618.723 649.595 617.832 649.313C616.941 649.031 616.198 648.407 615.767 647.578C615.336 646.749 615.251 645.783 615.532 644.893C615.813 644.002 616.437 643.259 617.266 642.827L633.194 634.568C634.023 634.137 634.99 634.053 635.882 634.335C636.773 634.616 637.516 635.24 637.948 636.068C638.379 636.897 638.463 637.863 638.182 638.754C637.901 639.644 637.277 640.387 636.447 640.818V640.818Z" fill="#2168F4"/>
<path d="M665.931 602.839L668.283 627.84C667.873 627.986 667.455 628.111 667.031 628.214C664.503 628.813 661.852 628.638 659.425 627.712C656.997 626.786 654.904 625.152 653.417 623.022C651.931 620.893 651.12 618.365 651.09 615.769C651.061 613.173 651.813 610.629 653.25 608.466C653.379 608.267 653.515 608.074 653.665 607.887C653.802 607.694 653.951 607.506 654.108 607.324C655.388 605.797 657.003 604.587 658.829 603.786C660.654 602.986 662.64 602.618 664.631 602.71C665.066 602.728 665.5 602.771 665.931 602.839V602.839Z" fill="white"/>
<path d="M660.56 559.464L666.549 623.1C666.964 622.92 667.379 622.746 667.787 622.579L661.891 559.924C661.445 559.767 661.006 559.615 660.56 559.464ZM660.56 559.464L666.549 623.1C666.964 622.92 667.379 622.746 667.787 622.579L661.891 559.924C661.445 559.767 661.006 559.615 660.56 559.464ZM660.56 559.464L666.549 623.1C666.964 622.92 667.379 622.746 667.787 622.579L661.891 559.924C661.445 559.767 661.006 559.615 660.56 559.464ZM660.998 564.112L667.898 637.439C668.317 637.297 668.735 637.161 669.147 637.026L662.308 564.355C661.869 564.268 661.43 564.187 660.998 564.112L660.998 564.112ZM660.998 564.112L667.898 637.439C668.317 637.297 668.735 637.161 669.147 637.026L662.308 564.355C661.869 564.268 661.43 564.187 660.998 564.112L660.998 564.112ZM660.998 564.112L667.898 637.439C668.317 637.297 668.735 637.161 669.147 637.026L662.308 564.355C661.869 564.268 661.43 564.187 660.998 564.112L660.998 564.112ZM660.998 564.112L667.898 637.439C668.317 637.297 668.735 637.161 669.147 637.026L662.308 564.355C661.869 564.268 661.43 564.187 660.998 564.112L660.998 564.112ZM660.998 564.112L667.961 638.102C668.379 637.96 668.79 637.819 669.209 637.683L662.308 564.355C661.869 564.268 661.43 564.187 660.998 564.112L660.998 564.112ZM933.707 477.735L668.571 502.581C665.06 502.916 661.825 504.628 659.576 507.341C657.326 510.055 656.245 513.549 656.569 517.058L675.08 713.744C675.416 717.252 677.13 720.483 679.847 722.73C682.563 724.978 686.061 726.057 689.572 725.732L954.707 700.886C958.217 700.553 961.452 698.842 963.701 696.129C965.949 693.417 967.029 689.923 966.704 686.416L948.193 489.73C947.86 486.222 946.148 482.989 943.432 480.74C940.716 478.491 937.218 477.41 933.707 477.735L933.707 477.735ZM965.427 686.535C965.722 689.705 964.747 692.862 962.714 695.313C960.682 697.765 957.759 699.31 954.587 699.611L689.452 724.457C686.279 724.752 683.118 723.776 680.663 721.746C678.208 719.715 676.659 716.794 676.356 713.624L657.846 516.939C657.552 513.768 658.529 510.61 660.562 508.157C662.595 505.705 665.518 504.158 668.691 503.856L933.827 479.01C937 478.716 940.161 479.693 942.615 481.725C945.07 483.757 946.617 486.679 946.917 489.85L965.427 686.535ZM660.998 564.112L667.838 636.795C668.256 636.653 668.667 636.512 669.085 636.369L662.308 564.355C661.869 564.268 661.43 564.187 660.998 564.112L660.998 564.112ZM660.998 564.112L667.898 637.439C668.317 637.297 668.735 637.161 669.147 637.026L662.308 564.355C661.869 564.268 661.43 564.187 660.998 564.112L660.998 564.112ZM660.998 564.112L667.898 637.439C668.317 637.297 668.735 637.161 669.147 637.026L662.308 564.355C661.869 564.268 661.43 564.187 660.998 564.112L660.998 564.112ZM660.998 564.112L667.898 637.439C668.317 637.297 668.735 637.161 669.147 637.026L662.308 564.355C661.869 564.268 661.43 564.187 660.998 564.112L660.998 564.112ZM660.56 559.464L666.549 623.1C666.964 622.92 667.379 622.746 667.787 622.579L661.891 559.924C661.445 559.767 661.006 559.615 660.56 559.464V559.464ZM660.56 559.464L666.549 623.1C666.964 622.92 667.379 622.746 667.787 622.579L661.891 559.924C661.445 559.767 661.006 559.615 660.56 559.464V559.464Z" fill="#2F2E41"/>
<path d="M610.057 632.122C609.752 631.562 609.328 631.076 608.815 630.698C608.302 630.32 607.712 630.06 607.087 629.934C606.462 629.808 605.817 629.821 605.198 629.972C604.578 630.122 603.999 630.406 603.502 630.804L590.384 622.559L590.558 630.602L602.988 637.199C603.713 637.99 604.703 638.488 605.771 638.598C606.839 638.709 607.91 638.424 608.781 637.798C609.652 637.172 610.264 636.249 610.499 635.203C610.734 634.156 610.577 633.06 610.057 632.122L610.057 632.122Z" fill="#FFB6B6"/>
<path d="M555.426 580.062L551.222 578.539C551.222 578.539 544.909 580.969 548.865 589.242L571.272 622.945L595.832 634.38L602.484 627.275L577.456 611.042L555.426 580.062Z" fill="#3F3D56"/>
</g>
<g clip-path="url(#clip2_8_212)">
<path d="M36.4148 607.511C38.5886 608.508 40.9831 608.93 43.3676 608.735C45.752 608.54 48.0461 607.736 50.0287 606.399C55.0865 602.904 57.1628 596.565 58.9168 590.68L64.1099 573.272L56.2241 577.679C50.5528 580.847 44.751 584.122 40.5658 589.086C36.3807 594.05 34.0948 601.144 36.5245 607.161" fill="#E6E6E6"/>
<path d="M35.0467 629.043C34.805 623.519 34.5484 617.923 35.5885 612.459C36.5124 607.607 38.4542 602.964 41.8668 599.326C43.6776 597.399 45.8114 595.801 48.1722 594.606C48.7879 594.295 49.2369 595.263 48.6243 595.574C44.5391 597.65 41.2197 600.967 39.1448 605.047C36.8501 609.585 36.0736 614.692 35.9294 619.726C35.8408 622.77 35.9702 625.813 36.1035 628.855C36.1241 628.994 36.0907 629.136 36.0101 629.251C35.9296 629.366 35.8079 629.446 35.6701 629.475C35.5304 629.499 35.3869 629.467 35.2706 629.386C35.1544 629.305 35.0748 629.181 35.0492 629.042L35.0467 629.043Z" fill="#F2F2F2"/>
<path d="M194.627 525.329C194.059 525.536 193.452 525.621 192.849 525.576L136.798 521.918C134.466 521.752 132.296 520.669 130.765 518.906C129.233 517.143 128.466 514.845 128.632 512.518C128.798 510.19 129.884 508.023 131.65 506.495C133.416 504.966 135.718 504.2 138.05 504.365L194.101 508.023C195.235 508.105 196.291 508.633 197.036 509.491C197.781 510.348 198.155 511.466 198.076 512.599L197.434 521.607C197.374 522.431 197.078 523.221 196.58 523.881C196.082 524.541 195.404 525.044 194.627 525.329V525.329Z" fill="#2168F4"/>
<path d="M111.926 636.294L102.918 635.458C101.785 635.351 100.741 634.801 100.015 633.927C99.2884 633.053 98.9389 631.927 99.043 630.796L106.029 555.853C106.136 554.723 106.687 553.68 107.563 552.955C108.438 552.23 109.566 551.881 110.699 551.985L119.707 552.821C120.84 552.928 121.884 553.478 122.61 554.352C123.337 555.226 123.686 556.352 123.582 557.482L116.596 632.426C116.489 633.556 115.938 634.598 115.062 635.324C114.187 636.049 113.059 636.398 111.926 636.294V636.294Z" fill="#2168F4"/>
<path d="M135.845 638.514L126.837 637.678C125.704 637.571 124.66 637.021 123.934 636.147C123.207 635.273 122.858 634.147 122.962 633.017L129.948 558.073C130.055 556.943 130.606 555.901 131.482 555.176C132.357 554.45 133.485 554.102 134.618 554.205L143.626 555.042C144.759 555.148 145.803 555.699 146.529 556.572C147.256 557.446 147.605 558.572 147.501 559.703L140.515 634.646C140.408 635.777 139.857 636.819 138.981 637.544C138.106 638.269 136.978 638.618 135.845 638.514V638.514Z" fill="#2168F4"/>
<path d="M135.304 475.688C152.494 477.284 167.726 464.667 169.326 447.507C170.926 430.347 158.287 415.143 141.097 413.547C123.907 411.951 108.675 424.569 107.075 441.728C105.475 458.888 118.114 474.092 135.304 475.688Z" fill="#2168F4"/>
<path d="M136.13 581.151L113.738 579.072C109.083 578.658 104.621 577.023 100.802 574.334C96.9838 571.644 93.945 567.996 91.9934 563.757C90.0418 559.518 89.2467 554.84 89.6884 550.196C90.1302 545.552 91.7933 541.107 94.5093 537.31L130.871 486.075C131.275 485.505 131.822 485.052 132.458 484.76C133.093 484.469 133.794 484.349 134.491 484.414C135.187 484.479 135.854 484.725 136.425 485.129C136.995 485.532 137.45 486.079 137.742 486.713L163.48 542.613C165.482 546.962 166.302 551.76 165.858 556.526C165.414 561.291 163.721 565.857 160.949 569.762C158.177 573.668 154.424 576.776 150.067 578.776C145.711 580.775 140.904 581.594 136.13 581.151V581.151Z" fill="#2F2E41"/>
<path d="M144.331 458.343C146.354 458.475 148.872 458.638 150.938 457.407C151.555 457.023 152.081 456.509 152.478 455.901C152.875 455.293 153.134 454.606 153.237 453.888C153.319 453.379 153.283 452.857 153.13 452.364C152.978 451.871 152.713 451.419 152.356 451.045C151.425 450.099 149.968 449.762 148.335 450.081L151.102 438.216L149.908 437.939L146.655 451.887L147.708 451.518C148.929 451.091 150.561 450.968 151.482 451.903C151.706 452.146 151.872 452.437 151.965 452.754C152.059 453.072 152.078 453.406 152.021 453.732C151.941 454.266 151.747 454.777 151.452 455.23C151.157 455.683 150.767 456.067 150.31 456.356C148.702 457.314 146.687 457.27 144.411 457.122L144.331 458.343Z" fill="#2F2E41"/>
<path d="M163.56 440.418L156.986 439.808L156.872 441.027L163.447 441.637L163.56 440.418Z" fill="#2F2E41"/>
<path d="M142.81 438.492L136.235 437.882L136.122 439.1L142.697 439.711L142.81 438.492Z" fill="#2F2E41"/>
<path d="M118.891 572.541C118.683 571.974 118.599 571.369 118.644 570.767L122.312 514.815C122.478 512.487 123.563 510.321 125.329 508.792C127.095 507.263 129.398 506.497 131.729 506.663C134.061 506.828 136.232 507.912 137.763 509.675C139.295 511.437 140.062 513.735 139.896 516.063L136.227 572.015C136.146 573.147 135.617 574.201 134.757 574.945C133.898 575.689 132.778 576.063 131.643 575.983L122.619 575.343C121.794 575.283 121.003 574.987 120.341 574.491C119.68 573.994 119.177 573.317 118.891 572.541V572.541Z" fill="#2168F4"/>
<path d="M137.454 421.382C140.775 426.67 146.47 430.539 152.888 430.344C159 430.158 164.376 426.417 166.188 420.514C166.999 417.719 167.126 414.77 166.556 411.917C165.987 409.063 164.739 406.388 162.917 404.116C159.059 399.229 153.164 396.246 147.182 394.855C135.852 392.221 123.689 395.162 114.311 401.883C109.604 405.22 105.692 409.551 102.852 414.569C100.103 419.555 98.4985 425.09 98.1562 430.772C97.4461 441.997 101.317 453.626 109.1 461.837C110.067 462.854 111.089 463.818 112.16 464.724C113.064 465.491 114.127 463.992 113.232 463.232C105.118 456.348 100.504 445.944 99.9531 435.411C99.6454 430.101 100.499 424.788 102.454 419.84C104.409 414.892 107.419 410.428 111.275 406.757C119.025 399.452 129.784 395.236 140.471 395.76C151.225 396.288 164.164 402.304 165.058 414.391C165.459 419.809 162.939 425.23 157.794 427.446C152.284 429.819 145.965 428.045 141.804 423.935C140.785 422.932 139.884 421.815 139.121 420.606C138.501 419.619 136.825 420.381 137.454 421.382L137.454 421.382Z" fill="#2F2E41"/>
<path d="M459.976 369.493L192.346 383.061L198.787 509.83L466.417 496.262L459.976 369.493Z" fill="#F1F1F1"/>
<path d="M452.876 380.752L200.551 393.543L205.925 499.311L458.25 486.519L452.876 380.752Z" fill="white"/>
<path d="M459.49 362.175L191.859 375.742L192.436 387.092L460.067 373.525L459.49 362.175Z" fill="#E5E5E5"/>
<path d="M200.452 384.086C201.613 384.194 202.641 383.342 202.749 382.183C202.857 381.025 202.004 379.998 200.843 379.89C199.683 379.783 198.654 380.635 198.546 381.793C198.438 382.952 199.292 383.978 200.452 384.086Z" fill="white"/>
<path d="M208.451 383.681C209.612 383.788 210.64 382.936 210.748 381.778C210.856 380.619 210.003 379.593 208.842 379.485C207.682 379.377 206.653 380.229 206.545 381.388C206.437 382.546 207.291 383.573 208.451 383.681Z" fill="white"/>
<path d="M216.45 383.275C217.611 383.383 218.639 382.531 218.747 381.372C218.855 380.214 218.002 379.187 216.841 379.079C215.681 378.972 214.652 379.824 214.544 380.982C214.436 382.141 215.29 383.167 216.45 383.275Z" fill="white"/>
<path d="M515.622 428.947L248.8 404.179L237.018 530.567L503.84 555.335L515.622 428.947Z" fill="#E6E6E6"/>
<path d="M506.982 439.077L255.42 415.726L245.59 521.175L497.152 544.526L506.982 439.077Z" fill="white"/>
<path d="M516.189 421.635L249.367 396.867L248.312 408.182L515.134 432.95L516.189 421.635Z" fill="#CBCBCB"/>
<path d="M256.975 406.401C258.135 406.508 259.164 405.657 259.272 404.498C259.38 403.339 258.527 402.313 257.366 402.205C256.206 402.097 255.177 402.949 255.069 404.108C254.961 405.266 255.815 406.293 256.975 406.401Z" fill="white"/>
<path d="M264.95 407.141C266.11 407.249 267.138 406.397 267.246 405.238C267.354 404.08 266.501 403.053 265.341 402.945C264.18 402.838 263.152 403.689 263.044 404.848C262.936 406.007 263.789 407.033 264.95 407.141Z" fill="white"/>
<path d="M272.925 407.881C274.085 407.989 275.114 407.137 275.222 405.978C275.33 404.82 274.476 403.793 273.316 403.686C272.155 403.578 271.127 404.43 271.019 405.588C270.911 406.747 271.764 407.774 272.925 407.881Z" fill="white"/>
<path d="M434.312 448.502L398.883 445.214L398.635 447.872L434.064 451.161L434.312 448.502Z" fill="#E6E6E6"/>
<path d="M452.866 458.096L398.156 453.017L397.908 455.676L452.619 460.755L452.866 458.096Z" fill="#E6E6E6"/>
<path d="M442.62 464.641L398.031 460.502L397.784 463.161L442.372 467.3L442.62 464.641Z" fill="#E6E6E6"/>
<path d="M422.732 471.02L396.702 468.604L396.455 471.263L422.484 473.679L422.732 471.02Z" fill="#E6E6E6"/>
<path d="M435.246 480.216L395.96 476.569L395.712 479.228L434.998 482.875L435.246 480.216Z" fill="#E6E6E6"/>
<path d="M387.152 443.281L382.813 442.878L382.409 447.21L386.748 447.613L387.152 443.281Z" fill="#E6E6E6"/>
<path d="M386.424 451.085L382.085 450.682L381.681 455.014L386.02 455.417L386.424 451.085Z" fill="#E6E6E6"/>
<path d="M385.731 458.517L381.392 458.114L380.989 462.446L385.327 462.849L385.731 458.517Z" fill="#E6E6E6"/>
<path d="M384.971 466.672L380.632 466.269L380.229 470.601L384.567 471.003L384.971 466.672Z" fill="#E6E6E6"/>
<path d="M384.229 474.637L379.89 474.234L379.486 478.566L383.825 478.969L384.229 474.637Z" fill="#E6E6E6"/>
<path d="M430.642 487.873L395.213 484.584L394.965 487.243L430.394 490.532L430.642 487.873Z" fill="#E6E6E6"/>
<path d="M449.196 497.467L394.485 492.388L394.237 495.047L448.948 500.126L449.196 497.467Z" fill="#E6E6E6"/>
<path d="M438.95 504.012L394.361 499.873L394.113 502.532L438.702 506.671L438.95 504.012Z" fill="#E6E6E6"/>
<path d="M419.062 510.391L393.032 507.975L392.784 510.634L418.814 513.05L419.062 510.391Z" fill="#E6E6E6"/>
<path d="M431.576 519.587L392.29 515.94L392.042 518.599L431.328 522.246L431.576 519.587Z" fill="#E6E6E6"/>
<path d="M383.481 482.652L379.143 482.249L378.739 486.58L383.078 486.983L383.481 482.652Z" fill="#E6E6E6"/>
<path d="M382.754 490.456L378.415 490.053L378.011 494.385L382.35 494.788L382.754 490.456Z" fill="#E6E6E6"/>
<path d="M382.061 497.888L377.722 497.485L377.318 501.817L381.657 502.219L382.061 497.888Z" fill="#E6E6E6"/>
<path d="M381.301 506.042L376.962 505.64L376.558 509.971L380.897 510.374L381.301 506.042Z" fill="#E6E6E6"/>
<path d="M380.558 514.008L376.219 513.605L375.816 517.937L380.155 518.339L380.558 514.008Z" fill="#E6E6E6"/>
<path d="M316.618 498.321L281.188 495.032L280.941 497.691L316.37 500.979L316.618 498.321Z" fill="#E6E6E6"/>
<path d="M320.392 505.638L275.804 501.499L275.556 504.158L320.144 508.297L320.392 505.638Z" fill="#E6E6E6"/>
<path d="M325.057 465.281C324.683 469.276 323.277 473.106 320.977 476.397C318.678 479.688 315.562 482.328 311.935 484.058C308.308 485.788 304.294 486.549 300.284 486.268C296.275 485.987 292.407 484.672 289.058 482.453L289.054 482.448C285.634 480.177 282.878 477.042 281.067 473.362C279.256 469.682 278.455 465.589 278.745 461.499C279.035 457.409 280.406 453.468 282.718 450.079C285.031 446.691 288.202 443.974 291.908 442.207C295.615 440.439 299.724 439.684 303.818 440.019C307.912 440.353 311.844 441.765 315.213 444.11C318.582 446.455 321.268 449.65 322.997 453.369C324.726 457.088 325.437 461.199 325.057 465.281L325.057 465.281Z" fill="#E6E6E6"/>
<path d="M302.146 462.024C305.619 462.347 308.697 459.797 309.02 456.33C309.343 452.863 306.79 449.791 303.316 449.469C299.843 449.146 296.765 451.696 296.442 455.163C296.119 458.63 298.673 461.702 302.146 462.024Z" fill="white"/>
<path d="M311.674 475.992C304.414 477.803 296.751 477.061 289.975 473.893L289.971 473.889L295.516 465.092L308.094 466.26L311.674 475.992Z" fill="white"/>
<path d="M227.071 514.002C216.11 512.984 208.074 502.701 209.157 491.077C210.241 479.454 220.04 470.826 231.001 471.843C241.962 472.861 249.998 483.144 248.915 494.768C247.831 506.391 238.032 515.019 227.071 514.002ZM230.504 477.169C222.485 476.425 215.302 482.886 214.493 491.572C213.683 500.259 219.548 507.931 227.567 508.676C235.586 509.42 242.769 502.959 243.579 494.272C244.389 485.586 238.523 477.914 230.504 477.169Z" fill="#2168F4"/>
<path d="M242.471 552.485L204.822 548.99C201.502 548.678 198.442 547.065 196.313 544.503C194.184 541.942 193.159 538.642 193.465 535.328L196.901 498.463C197.115 496.195 198.222 494.103 199.979 492.648C201.736 491.193 203.999 490.493 206.272 490.701L251.82 494.929C254.092 495.143 256.187 496.247 257.645 498.001C259.103 499.755 259.804 502.014 259.595 504.283L256.159 541.147C255.846 544.461 254.229 547.516 251.663 549.641C249.097 551.767 245.791 552.789 242.471 552.485V552.485Z" fill="#3F3D56"/>
<path d="M234.428 514.468C234.55 513.167 234.323 511.856 233.769 510.671C233.215 509.486 232.355 508.47 231.277 507.728C230.199 506.985 228.942 506.543 227.635 506.446C226.329 506.35 225.021 506.603 223.845 507.179C222.669 507.755 221.668 508.634 220.946 509.725C220.223 510.815 219.805 512.078 219.734 513.384C219.663 514.69 219.942 515.99 220.542 517.153C221.142 518.315 222.042 519.296 223.149 519.996L222.08 531.454L228.75 532.074L229.818 520.615C231.08 520.114 232.178 519.275 232.991 518.19C233.805 517.105 234.302 515.817 234.428 514.468V514.468Z" fill="white"/>
<path d="M233.262 648.414L0.735214 626.829C0.573351 626.814 0.424103 626.736 0.320302 626.611C0.216501 626.486 0.16665 626.325 0.181717 626.163C0.196783 626.002 0.275531 625.853 0.40064 625.749C0.525748 625.645 0.686968 625.595 0.848831 625.61L233.375 647.195C233.537 647.21 233.686 647.288 233.79 647.413C233.894 647.538 233.944 647.699 233.929 647.861C233.914 648.022 233.835 648.172 233.71 648.275C233.585 648.379 233.423 648.429 233.262 648.414Z" fill="#3F3D56"/>
</g>
<defs>
<clipPath id="clip0_8_212">
<rect width="522.964" height="382.902" fill="white" transform="matrix(0.997025 0.0770809 -0.0774076 0.996999 348.227 0)"/>
</clipPath>
<clipPath id="clip1_8_212">
<rect width="603.108" height="277.93" fill="white" transform="matrix(0.995638 -0.0933028 0.0936966 0.995601 443.606 497.292)"/>
</clipPath>
<clipPath id="clip2_8_212">
<rect width="494.91" height="305.923" fill="white" transform="matrix(0.995719 0.092428 -0.0928175 0.995683 28.52 322.17)"/>
</clipPath>
</defs>
</svg>
